<svg version="1.0" xmlns="http://www.w3.org/2000/svg" width="800" height="800" viewBox="0 0 64 64" xml:space="preserve"><g fill="#231F20"><path d="M56 4H40c0-2.211-1.789-4-4-4h-8c-2.211 0-4 1.789-4 4H8C5.789 4 4 5.789 4 8v5a1 1 0 0 0 1 1h54a1 1 0 0 0 1-1V8c0-2.211-1.789-4-4-4zM20 24a1 1 0 0 0-1 1v26a1 1 0 1 0 2 0V25a1 1 0 0 0-1-1zM32 24a1 1 0 0 0-1 1v26a1 1 0 1 0 2 0V25a1 1 0 0 0-1-1zM44 24a1 1 0 0 0-1 1v26a1 1 0 1 0 2 0V25a1 1 0 0 0-1-1z"/><path d="M9 16H7v44c0 2.211 1.789 4 4 4h42c2.211 0 4-1.789 4-4V16H9zm14 35a3 3 0 1 1-6 0V25a3 3 0 1 1 6 0v26zm12 0a3 3 0 1 1-6 0V25a3 3 0 1 1 6 0v26zm12 0a3 3 0 1 1-6 0V25a3 3 0 1 1 6 0v26z"/></g></svg>